<svg width="78" height="12" viewBox="0 0 78 12" fill="none" xmlns="http://www.w3.org/2000/svg">
<path d="M5.26708 1.5162L6.25706 4.32832L6.36397 4.632L6.68449 4.66236L9.43009 4.92242L7.27917 7.09926L7.09073 7.28998L7.14379 7.55278L7.77441 10.6762L5.5617 9.07944L5.26708 8.86683L4.97246 9.07944L2.75975 10.6762L3.39037 7.55278L3.44343 7.28998L3.25499 7.09926L1.10407 4.92242L3.84967 4.66236L4.1702 4.632L4.27711 4.32832L5.26708 1.5162Z" fill="#F1C644" stroke="#F1C644"/>
<path d="M22.3853 1.5162L23.3753 4.32832L23.4822 4.632L23.8027 4.66236L26.5483 4.92242L24.3974 7.09926L24.2089 7.28998L24.262 7.55278L24.8926 10.6762L22.6799 9.07944L22.3853 8.86683L22.0907 9.07944L19.878 10.6762L20.5086 7.55278L20.5616 7.28998L20.3732 7.09926L18.2223 4.92242L20.9679 4.66236L21.2884 4.632L21.3953 4.32832L22.3853 1.5162Z" fill="#F1C644" stroke="#F1C644"/>
<path d="M39 1.40434L40.128 4.34163L40.2409 4.63549L40.5545 4.66272L43.571 4.92462L41.2433 7.08404L41.032 7.28002L41.094 7.56143L41.7921 10.731L39.2778 9.06779L39 8.88405L38.7222 9.06779L36.2079 10.731L36.906 7.56143L36.968 7.28002L36.7567 7.08404L34.429 4.92462L37.4455 4.66272L37.7591 4.63549L37.872 4.34163L39 1.40434Z" fill="#F1C644" stroke="#F1C644"/>
<path d="M55.6147 1.5162L56.6047 4.32832L56.7116 4.632L57.0321 4.66236L59.7777 4.92242L57.6268 7.09926L57.4384 7.28998L57.4914 7.55278L58.122 10.6762L55.9093 9.07944L55.6147 8.86683L55.3201 9.07944L53.1074 10.6762L53.738 7.55278L53.7911 7.28998L53.6026 7.09926L51.4517 4.92242L54.1973 4.66236L54.5178 4.632L54.6247 4.32832L55.6147 1.5162Z" stroke="#F1C644"/>
<path d="M72.7329 1.5162L73.7229 4.32832L73.8298 4.632L74.1503 4.66236L76.8959 4.92242L74.745 7.09926L74.5566 7.28998L74.6096 7.55278L75.2402 10.6762L73.0275 9.07944L72.7329 8.86683L72.4383 9.07944L70.2256 10.6762L70.8562 7.55278L70.9093 7.28998L70.7208 7.09926L68.5699 4.92242L71.3155 4.66236L71.636 4.632L71.7429 4.32832L72.7329 1.5162Z" stroke="#F1C644"/>
</svg>
